<mxfile host="app.diagrams.net" modified="2022-06-09T08:39:33.680Z" agent="5.0 (Windows NT 10.0; Win64; x64) AppleWebKit/537.36 (KHTML, like Gecko) Chrome/102.0.5005.63 Safari/537.36" etag="REN7H0gUOXcCzO5HngKn" version="17.4.0" type="github">
  <diagram id="qxJYYcIdPifgSiWkrBCy" name="Page-1">
    <mxGraphModel dx="1346" dy="794" grid="1" gridSize="10" guides="1" tooltips="1" connect="1" arrows="1" fold="1" page="1" pageScale="1" pageWidth="2336" pageHeight="1654" math="0" shadow="0">
      <root>
        <mxCell id="0" />
        <mxCell id="1" parent="0" />
        <mxCell id="2bxgqbYxwE2AozTu03Wo-16" value="" style="rounded=1;whiteSpace=wrap;html=1;strokeWidth=2;fillColor=#d5e8d4;strokeColor=#82b366;arcSize=11;" vertex="1" parent="1">
          <mxGeometry x="680" y="370" width="590" height="400" as="geometry" />
        </mxCell>
        <mxCell id="2bxgqbYxwE2AozTu03Wo-13" style="edgeStyle=orthogonalEdgeStyle;rounded=0;orthogonalLoop=1;jettySize=auto;html=1;entryX=0.1;entryY=0.479;entryDx=0;entryDy=0;entryPerimeter=0;strokeWidth=2;" edge="1" parent="1" source="2bxgqbYxwE2AozTu03Wo-1" target="2bxgqbYxwE2AozTu03Wo-8">
          <mxGeometry relative="1" as="geometry" />
        </mxCell>
        <mxCell id="2bxgqbYxwE2AozTu03Wo-1" value="Ingress Service" style="sketch=0;html=1;dashed=0;whitespace=wrap;fillColor=#2875E2;strokeColor=#ffffff;points=[[0.005,0.63,0],[0.1,0.2,0],[0.9,0.2,0],[0.5,0,0],[0.995,0.63,0],[0.72,0.99,0],[0.5,1,0],[0.28,0.99,0]];shape=mxgraph.kubernetes.icon;prIcon=svc;strokeWidth=2;labelPosition=center;verticalLabelPosition=top;align=center;verticalAlign=bottom;" vertex="1" parent="1">
          <mxGeometry x="690" y="580" width="50" height="48" as="geometry" />
        </mxCell>
        <mxCell id="2bxgqbYxwE2AozTu03Wo-10" style="edgeStyle=orthogonalEdgeStyle;rounded=0;orthogonalLoop=1;jettySize=auto;html=1;entryX=0;entryY=0.5;entryDx=0;entryDy=0;entryPerimeter=0;strokeWidth=2;" edge="1" parent="1" source="2bxgqbYxwE2AozTu03Wo-2" target="2bxgqbYxwE2AozTu03Wo-17">
          <mxGeometry relative="1" as="geometry">
            <mxPoint x="600.25" y="970.24" as="targetPoint" />
          </mxGeometry>
        </mxCell>
        <mxCell id="2bxgqbYxwE2AozTu03Wo-2" value="Cron Job" style="sketch=0;html=1;dashed=0;whitespace=wrap;fillColor=#2875E2;strokeColor=#ffffff;points=[[0.005,0.63,0],[0.1,0.2,0],[0.9,0.2,0],[0.5,0,0],[0.995,0.63,0],[0.72,0.99,0],[0.5,1,0],[0.28,0.99,0]];shape=mxgraph.kubernetes.icon;prIcon=cronjob;strokeWidth=2;verticalAlign=bottom;labelPosition=center;verticalLabelPosition=top;align=center;" vertex="1" parent="1">
          <mxGeometry x="870" y="410" width="60" height="48" as="geometry" />
        </mxCell>
        <mxCell id="2bxgqbYxwE2AozTu03Wo-3" value="Persistent Volume" style="sketch=0;html=1;dashed=0;whitespace=wrap;fillColor=#2875E2;strokeColor=#ffffff;points=[[0.005,0.63,0],[0.1,0.2,0],[0.9,0.2,0],[0.5,0,0],[0.995,0.63,0],[0.72,0.99,0],[0.5,1,0],[0.28,0.99,0]];shape=mxgraph.kubernetes.icon;prIcon=pv;strokeWidth=2;labelPosition=center;verticalLabelPosition=top;align=center;verticalAlign=bottom;" vertex="1" parent="1">
          <mxGeometry x="1190" y="580" width="50" height="48" as="geometry" />
        </mxCell>
        <mxCell id="2bxgqbYxwE2AozTu03Wo-5" value="" style="edgeStyle=orthogonalEdgeStyle;rounded=0;orthogonalLoop=1;jettySize=auto;html=1;strokeWidth=2;" edge="1" parent="1" source="2bxgqbYxwE2AozTu03Wo-4" target="2bxgqbYxwE2AozTu03Wo-3">
          <mxGeometry relative="1" as="geometry" />
        </mxCell>
        <mxCell id="2bxgqbYxwE2AozTu03Wo-12" style="edgeStyle=orthogonalEdgeStyle;rounded=0;orthogonalLoop=1;jettySize=auto;html=1;strokeWidth=2;" edge="1" parent="1" source="2bxgqbYxwE2AozTu03Wo-4" target="2bxgqbYxwE2AozTu03Wo-8">
          <mxGeometry relative="1" as="geometry" />
        </mxCell>
        <mxCell id="2bxgqbYxwE2AozTu03Wo-4" value="Claim" style="sketch=0;html=1;dashed=0;whitespace=wrap;fillColor=#2875E2;strokeColor=#ffffff;points=[[0.005,0.63,0],[0.1,0.2,0],[0.9,0.2,0],[0.5,0,0],[0.995,0.63,0],[0.72,0.99,0],[0.5,1,0],[0.28,0.99,0]];shape=mxgraph.kubernetes.icon;prIcon=pvc;strokeWidth=2;labelPosition=center;verticalLabelPosition=top;align=center;verticalAlign=bottom;" vertex="1" parent="1">
          <mxGeometry x="1050" y="580" width="50" height="48" as="geometry" />
        </mxCell>
        <mxCell id="2bxgqbYxwE2AozTu03Wo-7" style="edgeStyle=orthogonalEdgeStyle;rounded=0;orthogonalLoop=1;jettySize=auto;html=1;entryX=0.02;entryY=0.5;entryDx=0;entryDy=0;entryPerimeter=0;strokeWidth=2;" edge="1" parent="1" source="2bxgqbYxwE2AozTu03Wo-6" target="2bxgqbYxwE2AozTu03Wo-1">
          <mxGeometry relative="1" as="geometry" />
        </mxCell>
        <mxCell id="2bxgqbYxwE2AozTu03Wo-6" value="User" style="sketch=0;html=1;dashed=0;whitespace=wrap;fillColor=#2875E2;strokeColor=#ffffff;points=[[0.005,0.63,0],[0.1,0.2,0],[0.9,0.2,0],[0.5,0,0],[0.995,0.63,0],[0.72,0.99,0],[0.5,1,0],[0.28,0.99,0]];shape=mxgraph.kubernetes.icon;prIcon=user;strokeWidth=2;labelPosition=center;verticalLabelPosition=top;align=center;verticalAlign=bottom;" vertex="1" parent="1">
          <mxGeometry x="570" y="580" width="50" height="48" as="geometry" />
        </mxCell>
        <mxCell id="2bxgqbYxwE2AozTu03Wo-8" value="Ux Pod" style="sketch=0;html=1;dashed=0;whitespace=wrap;fillColor=#2875E2;strokeColor=#ffffff;points=[[0.005,0.63,0],[0.1,0.2,0],[0.9,0.2,0],[0.5,0,0],[0.995,0.63,0],[0.72,0.99,0],[0.5,1,0],[0.28,0.99,0]];shape=mxgraph.kubernetes.icon;prIcon=pod;strokeWidth=2;labelPosition=center;verticalLabelPosition=top;align=center;verticalAlign=bottom;" vertex="1" parent="1">
          <mxGeometry x="860" y="580" width="50" height="48" as="geometry" />
        </mxCell>
        <mxCell id="2bxgqbYxwE2AozTu03Wo-15" value="Light" style="html=1;shadow=0;dashed=0;shape=mxgraph.bootstrap.rrect;rSize=5;strokeColor=#F8F9FA;strokeWidth=1;fillColor=none;fontColor=#F8F9FA;whiteSpace=wrap;align=center;verticalAlign=middle;spacingLeft=0;fontStyle=0;fontSize=16;spacing=5;" vertex="1" parent="1">
          <mxGeometry x="890" y="510" width="60" height="40" as="geometry" />
        </mxCell>
        <mxCell id="2bxgqbYxwE2AozTu03Wo-19" style="edgeStyle=orthogonalEdgeStyle;rounded=0;orthogonalLoop=1;jettySize=auto;html=1;strokeWidth=2;entryX=0.5;entryY=0;entryDx=0;entryDy=0;entryPerimeter=0;" edge="1" parent="1" source="2bxgqbYxwE2AozTu03Wo-17" target="2bxgqbYxwE2AozTu03Wo-4">
          <mxGeometry relative="1" as="geometry">
            <mxPoint x="1074" y="520" as="targetPoint" />
          </mxGeometry>
        </mxCell>
        <mxCell id="2bxgqbYxwE2AozTu03Wo-17" value="Model Update Job" style="sketch=0;html=1;dashed=0;whitespace=wrap;fillColor=#2875E2;strokeColor=#ffffff;points=[[0.005,0.63,0],[0.1,0.2,0],[0.9,0.2,0],[0.5,0,0],[0.995,0.63,0],[0.72,0.99,0],[0.5,1,0],[0.28,0.99,0]];shape=mxgraph.kubernetes.icon;prIcon=job;labelPosition=center;verticalLabelPosition=top;align=center;verticalAlign=bottom;" vertex="1" parent="1">
          <mxGeometry x="1050" y="410" width="50" height="48" as="geometry" />
        </mxCell>
        <mxCell id="2bxgqbYxwE2AozTu03Wo-18" value="Eiros Namespace" style="sketch=0;html=1;dashed=0;whitespace=wrap;fillColor=#2875E2;strokeColor=#ffffff;points=[[0.005,0.63,0],[0.1,0.2,0],[0.9,0.2,0],[0.5,0,0],[0.995,0.63,0],[0.72,0.99,0],[0.5,1,0],[0.28,0.99,0]];shape=mxgraph.kubernetes.icon;prIcon=ns;labelPosition=right;verticalLabelPosition=middle;align=left;verticalAlign=middle;" vertex="1" parent="1">
          <mxGeometry x="680" y="370" width="50" height="48" as="geometry" />
        </mxCell>
        <mxCell id="2bxgqbYxwE2AozTu03Wo-24" style="edgeStyle=orthogonalEdgeStyle;rounded=0;orthogonalLoop=1;jettySize=auto;html=1;entryX=0.5;entryY=1;entryDx=0;entryDy=0;entryPerimeter=0;strokeWidth=2;fillColor=#dae8fc;strokeColor=#6c8ebf;dashed=1;" edge="1" parent="1" source="2bxgqbYxwE2AozTu03Wo-20" target="2bxgqbYxwE2AozTu03Wo-8">
          <mxGeometry relative="1" as="geometry" />
        </mxCell>
        <mxCell id="2bxgqbYxwE2AozTu03Wo-20" value="Replica Set" style="sketch=0;html=1;dashed=0;whitespace=wrap;fillColor=#2875E2;strokeColor=#ffffff;points=[[0.005,0.63,0],[0.1,0.2,0],[0.9,0.2,0],[0.5,0,0],[0.995,0.63,0],[0.72,0.99,0],[0.5,1,0],[0.28,0.99,0]];shape=mxgraph.kubernetes.icon;prIcon=rs;labelPosition=center;verticalLabelPosition=top;align=center;verticalAlign=bottom;" vertex="1" parent="1">
          <mxGeometry x="950" y="690" width="50" height="48" as="geometry" />
        </mxCell>
        <mxCell id="2bxgqbYxwE2AozTu03Wo-23" style="edgeStyle=orthogonalEdgeStyle;rounded=0;orthogonalLoop=1;jettySize=auto;html=1;exitX=0.005;exitY=0.63;exitDx=0;exitDy=0;exitPerimeter=0;strokeWidth=2;fillColor=#dae8fc;strokeColor=#6c8ebf;dashed=1;" edge="1" parent="1" source="2bxgqbYxwE2AozTu03Wo-21" target="2bxgqbYxwE2AozTu03Wo-20">
          <mxGeometry relative="1" as="geometry" />
        </mxCell>
        <mxCell id="2bxgqbYxwE2AozTu03Wo-21" value="Deployment" style="sketch=0;html=1;dashed=0;whitespace=wrap;fillColor=#2875E2;strokeColor=#ffffff;points=[[0.005,0.63,0],[0.1,0.2,0],[0.9,0.2,0],[0.5,0,0],[0.995,0.63,0],[0.72,0.99,0],[0.5,1,0],[0.28,0.99,0]];shape=mxgraph.kubernetes.icon;prIcon=deploy;labelPosition=center;verticalLabelPosition=top;align=center;verticalAlign=bottom;" vertex="1" parent="1">
          <mxGeometry x="1070" y="690" width="50" height="48" as="geometry" />
        </mxCell>
        <mxCell id="2bxgqbYxwE2AozTu03Wo-22" value="" style="sketch=0;html=1;dashed=0;whitespace=wrap;fillColor=#2875E2;strokeColor=#ffffff;points=[[0.005,0.63,0],[0.1,0.2,0],[0.9,0.2,0],[0.5,0,0],[0.995,0.63,0],[0.72,0.99,0],[0.5,1,0],[0.28,0.99,0]];shape=mxgraph.kubernetes.icon;prIcon=c_m" vertex="1" parent="1">
          <mxGeometry x="1090" y="440" width="50" height="48" as="geometry" />
        </mxCell>
        <mxCell id="2bxgqbYxwE2AozTu03Wo-25" value="" style="sketch=0;html=1;dashed=0;whitespace=wrap;fillColor=#2875E2;strokeColor=#ffffff;points=[[0.005,0.63,0],[0.1,0.2,0],[0.9,0.2,0],[0.5,0,0],[0.995,0.63,0],[0.72,0.99,0],[0.5,1,0],[0.28,0.99,0]];shape=mxgraph.kubernetes.icon;prIcon=c_m" vertex="1" parent="1">
          <mxGeometry x="900" y="610" width="50" height="48" as="geometry" />
        </mxCell>
      </root>
    </mxGraphModel>
  </diagram>
</mxfile>
